<svg xmlns="http://www.w3.org/2000/svg" xmlns:xlink="http://www.w3.org/1999/xlink" viewBox="0 0 314.51 347.41"><defs><style>.cls-1{fill:none;}.cls-2{fill:#ce923c;}.cls-3{clip-path:url(#clip-path);}.cls-4{fill:#30728e;}.cls-5{fill:#69afdf;}.cls-6{fill:#4587ac;}.cls-7{fill:#3a280e;}.cls-8{fill:#ffdac6;}.cls-9{fill:#cb926d;}.cls-10{fill:#422511;}.cls-11{fill:#925c03;}.cls-12{fill:#eca999;}.cls-13{fill:#983e1f;}.cls-14{fill:#1f123d;}.cls-15{fill:#efe522;}</style><clipPath id="clip-path" transform="translate(0 -0.19)"><circle class="cls-1" cx="138.6" cy="138.6" r="138.6" transform="translate(-57.41 138.6) rotate(-45)"/></clipPath></defs><title>Asset 8</title><g id="Layer_2" data-name="Layer 2"><g id="Layer_1-2" data-name="Layer 1"><circle class="cls-2" cx="138.6" cy="138.79" r="138.6" transform="translate(-57.54 138.47) rotate(-45)"/><g class="cls-3"><polygon class="cls-4" points="207.37 154.86 242.6 251.8 235.15 335.52 211.57 335.52 215.05 255.94 184.08 192.98 207.37 154.86"/><path class="cls-5" d="M102.57,146.79s-16.42-2.1-36.94,4.07c0,0,6.72,63.89,18.47,101.3,0,0-12,66.19-12.71,72.67,0,0,36.47,20.36,54.57,22.77l5.5-23.49s5.4,23,11.88,21.95c0,0,45.32-6.12,61.15-22.67,0,0-15.11-54.95-15.47-61.29s15.11-53.11,18.35-68.57,7.55-34.52,0-38.49-47.68-8.65-54.77-7.73-50-.52-50-.52" transform="translate(0 -0.19)"/><path class="cls-4" d="M116.72,150.86l12.7,10.28S119,173.38,118.57,174.46s-21.64-25.9-22.36-30.58S110,138.6,110,138.6Z" transform="translate(0 -0.19)"/><path class="cls-4" d="M158.45,138.39c-1.08.1-29,22.75-29,22.75s16.35,11.59,17.65,13.35c0,0,21.09-19.47,21.09-26.47v-1.23Z" transform="translate(0 -0.19)"/><path class="cls-6" d="M130.31,166.63S126,282.39,131.46,320.21c0,0-10.58-79.39-1.15-153.58" transform="translate(0 -0.19)"/><path class="cls-6" d="M121.39,189c0,2.29-1.22,4.14-2.73,4.14s-2.73-1.85-2.73-4.14,1.22-4.14,2.73-4.14,2.73,1.86,2.73,4.14" transform="translate(0 -0.19)"/><path class="cls-6" d="M121.3,219.79c0,2.28-1.22,4.13-2.73,4.13s-2.73-1.85-2.73-4.13,1.22-4.14,2.73-4.14,2.73,1.85,2.73,4.14" transform="translate(0 -0.19)"/><path class="cls-6" d="M121.39,256.12c0,2.29-1.22,4.14-2.73,4.14s-2.73-1.85-2.73-4.14,1.22-4.14,2.73-4.14,2.73,1.86,2.73,4.14" transform="translate(0 -0.19)"/><path class="cls-6" d="M124.13,291.39c0,2.29-1.23,4.14-2.74,4.14s-2.73-1.85-2.73-4.14,1.22-4.14,2.73-4.14,2.74,1.86,2.74,4.14" transform="translate(0 -0.19)"/><path class="cls-4" d="M143.34,190.65s33.81,2.52,35.61,2.52c0,0-1.8,25.18-2.88,26.62s-15.82,10.79-17.62,10.79-13.67-8.27-15.11-10.79,0-29.14,0-29.14" transform="translate(0 -0.19)"/><path class="cls-7" d="M90.28,67.68s-8.64-12-8.1-20.33,9.44-13.19,24-13.73c0,0,5.4-3,10.8-2.69,0,0,17.26-12.95,35.88,1.34,0,0,18.35-.06,26.17,15.08s5.13,33.76,1.35,42.93-7.82,13-7,16.46,2.7,31.3-.26,33.19-5,1.08-5,1.08,1.71,10.79-3.69,12.41-11.87-6.11-11.87-6.11A19.63,19.63,0,0,1,136.41,155a58.29,58.29,0,0,1-19.69-4.17s-4.59,4.46-7,0c0,0-3.51,5-8.09,3.08a5.83,5.83,0,0,1-3.51-6.64s-3.78,1.21-6.48-.52,3.24-30.34,3-38.43-1.4-36.09-4.31-40.68" transform="translate(0 -0.19)"/><path class="cls-8" d="M94.59,70.32s2.7,34.32,1.08,40.23c0,0,4.32,5.45,6.75,6.49,0,0,5.12-7.6,6.74-8.41a64.63,64.63,0,0,1,10.26-3.51c2.69-.54,10.79,1.62,10.79,1.62s18.58-7.79,20-6.46c0,0,9.72,12.94,11.06,13.48s4.32-2.9,4.32-2.9,1.08-25.95,0-26.91-6.47-6.62-6.47-6.62-2.16-12.54-3.51-14.9-24.55-5.6-33.19-4A35.49,35.49,0,0,1,107,58s.54,2.86,1.89,3.13c0,0-8.63,2.84-12.68,1.29,0,0,2.16,3.39,4.86,4,0,0-4,3.6-6.48,3.87" transform="translate(0 -0.19)"/><path class="cls-8" d="M172.66,90.3s6.48-6,11.42-4.52,6.92,16,2.43,22.77-12.34,5.65-12.34,5.65-4-17.06-1.51-23.9" transform="translate(0 -0.19)"/><path class="cls-9" d="M122,85s3.06,12,2,12.14-9,2.75-9.29,3.87a10,10,0,0,0,.8,5.19s-2.84-3.39-2.57-6.49,9.44-2.68,9.58-4.11,0-8.58-.54-10.6" transform="translate(0 -0.19)"/><path class="cls-10" d="M131.56,88.53s1.88-7.69,7.88-8a8.16,8.16,0,0,1,8.84,7s-4.46-4.76-8.84-4.93-7.88,5.94-7.88,5.94" transform="translate(0 -0.19)"/><path class="cls-10" d="M102.57,93.12S103.78,85.27,109,85s8,2.45,8.33,6.23c0,0-3.47-4.44-8.46-3.71s-6.34,5.6-6.34,5.6" transform="translate(0 -0.19)"/><path class="cls-11" d="M130.31,68.81s8.67-1.67,11.9-.63a9.35,9.35,0,0,1,4.86,3.87s-2.86-2-8.38-2.1-7.73-.2-8.38-1.14" transform="translate(0 -0.19)"/><path class="cls-11" d="M115.93,71.3s-8.83,0-11.81,1.6a9.41,9.41,0,0,0-4.06,4.7s2.44-2.55,7.85-3.62,7.56-1.63,8-2.68" transform="translate(0 -0.19)"/><path class="cls-12" d="M131.62,138.39c.3,0,.58,0,.88-.08,8.9-1.26,13.56-10.13,15.95-17.86-5.54.73-18.62,4-16.83,17.94" transform="translate(0 -0.19)"/><path class="cls-13" d="M133.72,112.14c-.28.81-2.7,4.9-2.7,4.9-2.3-.37-6.8-3.15-6.8-3.15C120.92,115.51,108,117,108,117s8,22.69,23.62,21.35c-1.79-14,11.29-17.21,16.83-17.94a62.26,62.26,0,0,0,2.4-11.9c-1.76.86-16.87,2.78-17.13,3.59" transform="translate(0 -0.19)"/></g><path class="cls-5" d="M221.43,117.62a17.32,17.32,0,0,1-9.65,9.09s12.68,5.08,22.31-3.77a88,88,0,0,0,25.55,3.65c30.3,0,54.87-14.22,54.87-31.75s-24.57-31.75-54.87-31.75S204.77,77.3,204.77,94.84C204.77,103.78,211.16,111.85,221.43,117.62Zm51.46-24.57a7.09,7.09,0,1,1,7.09,7.09A7.1,7.1,0,0,1,272.89,93.05Zm-24.35,0a7.09,7.09,0,1,1,7.09,7.09A7.09,7.09,0,0,1,248.54,93.05Zm-24.36,0a7.1,7.1,0,1,1,7.1,7.09A7.1,7.1,0,0,1,224.18,93.05Z" transform="translate(0 -0.19)"/><path class="cls-14" d="M142.77,168.78c-.44-3.35-5.13-4.46-5.13-4.46H115.75s-4.69,1.11-5.14,4.46,0,49.37,0,49.37-.42,3.12,2.47,4h27.23c2.89-.9,2.46-4,2.46-4S143.22,172.13,142.77,168.78Z" transform="translate(0 -0.19)"/><path class="cls-15" d="M142.77,171c-.44-3.35-5.13-4.47-5.13-4.47H115.75s-4.69,1.12-5.14,4.47,0,49.36,0,49.36-.42,3.13,2.47,4h27.23c2.89-.89,2.46-4,2.46-4S143.22,174.37,142.77,171Z" transform="translate(0 -0.19)"/><path class="cls-14" d="M120,173.42a1.51,1.51,0,0,1-1.51,1.51h-2.79a1.52,1.52,0,0,1-1.51-1.51h0a1.52,1.52,0,0,1,1.51-1.51h2.79a1.51,1.51,0,0,1,1.51,1.51Z" transform="translate(0 -0.19)"/><path class="cls-8" d="M105.86,174s7.35-1.18,6.76,13.23c0,0-2.94,6.77,20.88,0s11.18,5,7.94,5.88c0,0,1.47,12.94-.29,15.3s-3.72,10.51-19,9.34l-17.75,11.53-3.83-17.64,5.3-6.47A35.64,35.64,0,0,1,104.68,192C105.56,185.48,105.86,174,105.86,174Z" transform="translate(0 -0.19)"/><polygon class="cls-4" points="65.64 150.68 33.78 255.94 58.16 265.92 112.39 227.25 100.61 207.16 72.73 228.28 75.76 213.13 65.64 150.68"/></g></g></svg>