<svg xmlns="http://www.w3.org/2000/svg" xmlns:xlink="http://www.w3.org/1999/xlink" viewBox="0 0 310.01 312.39"><defs><style>.cls-1{fill:none;}.cls-2{fill:#fcb614;}.cls-3{fill:#966554;}.cls-4{clip-path:url(#clip-path);}.cls-5{fill:#e8a68b;}.cls-6{fill:#fff;}.cls-7{fill:#e09b7c;}.cls-8{fill:#3f1e0c;}.cls-9{fill:#e6e7e8;}.cls-10{fill:#db2c2c;}.cls-11{fill:#f25f5f;}.cls-12{fill:#5a3434;}.cls-13{fill:#4c2c2c;}.cls-14{fill:#6d3a3a;}.cls-15{fill:#d1d2d4;}.cls-16{fill:#633414;}.cls-17{fill:#1f123d;}.cls-18{fill:#bc7751;}</style><clipPath id="clip-path"><circle class="cls-1" cx="165.35" cy="144.66" r="144.66" transform="translate(-20.87 28.08) rotate(-9.13)"/></clipPath></defs><title>Asset 6</title><g id="Layer_2" data-name="Layer 2"><g id="Layer_1-2" data-name="Layer 1"><circle class="cls-2" cx="165.35" cy="144.66" r="144.66" transform="translate(7.62 297.59) rotate(-85.3)"/><path class="cls-3" d="M90.07,104.33c0-14.39-20.17-26.06-45-26.06S0,89.94,0,104.33s20.16,26.06,45,26.06a72.34,72.34,0,0,0,21-3c7.9,7.26,18.31,3.1,18.31,3.1A14.19,14.19,0,0,1,76.39,123C84.82,118.29,90.07,111.67,90.07,104.33Zm-61.74,4.35a5.82,5.82,0,1,1,5.82-5.82A5.81,5.81,0,0,1,28.33,108.68Zm20,0a5.82,5.82,0,1,1,5.82-5.82A5.82,5.82,0,0,1,48.32,108.68Zm20,0a5.82,5.82,0,1,1,5.82-5.82A5.82,5.82,0,0,1,68.31,108.68Z"/><g class="cls-4"><path class="cls-5" d="M164.57,202.1a4.22,4.22,0,0,0-6,0l-5.34,5.42a4.22,4.22,0,0,0,0,6l16.6,16.36a4.22,4.22,0,0,0,6,0l5.34-5.42a4.22,4.22,0,0,0-.05-6Z"/><polygon class="cls-6" points="165.27 228.36 156.51 220.12 172.03 206.46 181.55 215.62 165.27 228.36"/><path class="cls-7" d="M151.64,190.24a2.44,2.44,0,0,0-3.28-1.09h0a2.44,2.44,0,0,0-1.08,3.28l3,6a2.45,2.45,0,0,0,3.28,1.09h0a2.44,2.44,0,0,0,1.08-3.28Z"/><polygon class="cls-8" points="215.66 293.43 115.35 293.43 115.35 165.83 140.45 158.38 190.56 158.38 215.66 165.83 215.66 293.43"/><rect class="cls-7" x="153.33" y="131.88" width="24.04" height="34.28"/><polygon class="cls-6" points="215.5 298.93 115.19 298.93 115.19 171.05 140.29 163.88 190.41 163.88 215.5 171.05 215.5 298.93"/><rect class="cls-9" x="184.31" y="209.99" width="20.7" height="27.14"/><path class="cls-7" d="M150.94,163.88a14.41,14.41,0,0,0,28.82,0l-13.36-7.41Z"/><path class="cls-7" d="M137.13,107.91c1.93,6.37-.48,12.75-5.4,14.23s-10.45-2.47-12.38-8.85.49-12.74,5.4-14.23S135.2,101.54,137.13,107.91Z"/><path class="cls-7" d="M192.86,107.91c-1.92,6.37.49,12.75,5.4,14.23s10.46-2.47,12.39-8.85-.49-12.74-5.4-14.23S194.79,101.54,192.86,107.91Z"/><path class="cls-5" d="M202.33,101.89c0,21.9-16.71,47.2-37.33,47.2s-37.33-25.3-37.33-47.2S144.38,62.24,165,62.24,202.33,80,202.33,101.89Z"/><path class="cls-10" d="M154.63,120.23a10.41,10.41,0,0,0,20.74,0Z"/><path class="cls-6" d="M173.81,121a1.46,1.46,0,0,1-1.46,1.46h-14.7a1.46,1.46,0,0,1-1.46-1.46h0a1.46,1.46,0,0,1,1.46-1.46h14.7a1.46,1.46,0,0,1,1.46,1.46Z"/><path class="cls-11" d="M171.62,127.38a10.4,10.4,0,0,0-13.24,0,10.4,10.4,0,0,0,13.24,0Z"/><path class="cls-8" d="M179.75,120.63c-1.37-2.56-7.45-4.49-14.75-4.49s-13.38,1.93-14.75,4.49Z"/><path class="cls-8" d="M153.16,101.55a4.29,4.29,0,1,1-4.29-4.29A4.29,4.29,0,0,1,153.16,101.55Z"/><path class="cls-8" d="M185.42,101.55a4.29,4.29,0,1,1-4.29-4.29A4.29,4.29,0,0,1,185.42,101.55Z"/><path class="cls-8" d="M154.38,94c0-1.38-2.14-2.89-5-3.45s-5.5,0-6,1.32Z"/><path class="cls-8" d="M175.62,94c0-1.38,2.14-2.89,5-3.45s5.49,0,6,1.32Z"/><path class="cls-12" d="M117.31,57.78,105.9,51l58.89-9c.86-.14,1.71-.27,2.53-.38h0c26.05-3.55,28.92,8.31,28.92,8.31l2.3,6.55c17.76-12.89,13.2,36.87,2.69,52.91L193,102.61,189.29,83.9l-29.22,6.18L132.3,83.85l-3.15,18.76L123.92,85,98.76,66.59C105.39,63.26,111.55,60.35,117.31,57.78Z"/><path class="cls-13" d="M129.15,102.61c.14-.81.68-24.87.68-24.87l28,10.5,35.42-10.5s-.45,24-.64,23L189.29,83.9l-29.22,6.18L132.3,83.85Z"/><path class="cls-14" d="M172.07,65.21s-41.79,3-38.47-18.46l19.32-2.94C152.19,51.1,154.7,61.76,172.07,65.21Z"/><polygon class="cls-13" points="126.4 93.35 124.45 81.39 98.76 66.59 123.92 85.04 126.4 93.35"/><polygon class="cls-13" points="105.9 50.98 122.48 57.37 117.31 57.78 105.9 50.98"/><polyline class="cls-11" points="164.21 105.84 160.41 110.6 164.21 111.34"/><polygon class="cls-15" points="153.33 156.47 146.72 156.47 146.38 163.88 153.33 163.88 153.33 156.47"/><polygon class="cls-9" points="146.72 156.47 160.83 177.19 148.49 185.55 140.29 163.88 146.72 156.47"/><polygon class="cls-15" points="177.36 156.47 183.98 156.47 184.31 163.88 177.36 163.88 177.36 156.47"/><polygon class="cls-9" points="183.98 156.47 169.86 177.19 182.2 185.55 190.4 163.88 183.98 156.47"/><polygon class="cls-3" points="134.21 160.17 134.21 298.93 103.87 298.93 103.87 169.2 134.21 160.17"/><polygon class="cls-3" points="196.49 160.17 196.49 298.93 226.83 298.93 226.83 169.2 196.49 160.17"/><polygon class="cls-16" points="134.21 160.17 127.1 162.29 117.16 190.27 124.75 204.88 117.16 213.03 134.21 263.61 134.21 160.17"/><polygon class="cls-16" points="196.49 160.17 203.6 162.29 213.54 190.27 205.95 204.88 213.54 213.03 196.49 263.61 196.49 160.17"/><path class="cls-5" d="M118.68,287.25a4.23,4.23,0,0,1-.65,5.93l-5.93,4.76a4.23,4.23,0,0,1-5.93-.65L91.59,279.11a4.21,4.21,0,0,1,.65-5.93l5.93-4.75a4.2,4.2,0,0,1,5.92.65Z"/><path class="cls-5" d="M130.78,298.78a13.62,13.62,0,1,1-13.62-13.62A13.61,13.61,0,0,1,130.78,298.78Z"/><polygon class="cls-6" points="92.63 283.88 99.93 293.43 115.11 279.38 106.96 268.98 92.63 283.88"/><polygon class="cls-3" points="103.87 169.2 53.21 231.4 95.37 291.62 114.63 273.22 90.15 237.13 112.92 203.7 103.87 169.2"/><path class="cls-5" d="M130,287.09a2.52,2.52,0,0,1,2.3,2.72h0a2.52,2.52,0,0,1-2.72,2.31l-6.93-.58a2.51,2.51,0,0,1-2.3-2.72h0a2.51,2.51,0,0,1,2.72-2.3Z"/></g><polygon class="cls-3" points="228 169 265.19 269.94 251.59 280.81 177.31 233.84 180.63 218.5 226.53 234.97 216.61 177.75 228 169"/><path class="cls-17" d="M176,178.44c-.39-2.91-4.47-3.88-4.47-3.88h-19s-4.08,1-4.47,3.88,0,42.93,0,42.93a3.22,3.22,0,0,0,2.15,3.5h23.67a3.22,3.22,0,0,0,2.15-3.5S176.37,181.36,176,178.44Z"/><path class="cls-18" d="M176,180.39c-.39-2.92-4.47-3.89-4.47-3.89h-19s-4.08,1-4.47,3.89,0,42.92,0,42.92a3.22,3.22,0,0,0,2.15,3.5h23.67a3.22,3.22,0,0,0,2.15-3.5S176.37,183.3,176,180.39Z"/><path class="cls-17" d="M156.17,182.48a1.31,1.31,0,0,1-1.31,1.31h-2.43a1.31,1.31,0,0,1-1.31-1.31h0a1.31,1.31,0,0,1,1.31-1.32h2.43a1.32,1.32,0,0,1,1.31,1.32Z"/><path class="cls-5" d="M179,187.66s-6.39-1-5.88,11.51c0,0,2.56,5.88-18.16,0s-9.71,4.34-6.9,5.11c0,0-1.28,11.25.25,13.3s3.24,9.14,16.54,8.12l15.43,10,3.33-15.35L179,214.77a31.13,31.13,0,0,0,1-11.51C179.24,197.63,179,187.66,179,187.66Z"/></g></g></svg>