<svg xmlns="http://www.w3.org/2000/svg" xmlns:xlink="http://www.w3.org/1999/xlink" viewBox="0 0 378.9 335.03"><defs><style>.cls-1{fill:none;}.cls-2{fill:#cc5aa6;}.cls-3{clip-path:url(#clip-path);}.cls-4{fill:#157c5c;}.cls-5{fill:#13bf8e;}.cls-6{fill:#f7cead;}.cls-7{fill:#f2b994;}.cls-8{fill:#7c422e;}.cls-9{fill:#753a26;}.cls-10{fill:#85472e;}.cls-11{fill:#a35c43;}.cls-12{fill:#773f2b;}.cls-13{fill:#fff;}.cls-14{fill:#5b2d20;}.cls-15{fill:#c91414;}.cls-16{fill:#1f123d;}.cls-17{fill:#f26620;}.cls-18{fill:#e8a68b;}</style><clipPath id="clip-path" transform="translate(0)"><circle class="cls-1" cx="151.74" cy="151.74" r="151.74" transform="translate(-62.85 151.74) rotate(-45)"/></clipPath></defs><title>Asset 7</title><g id="Layer_2" data-name="Layer 2"><g id="Layer_1-2" data-name="Layer 1"><circle class="cls-2" cx="151.74" cy="151.74" r="151.74" transform="translate(-11.24 12.14) rotate(-4.42)"/><g class="cls-3"><polygon class="cls-4" points="182.77 184.78 210.8 195.06 226.57 324.04 210.8 328.39 182.77 184.78"/><path class="cls-5" d="M161.3,178.15l23.51,6.41s18.85,25.17,16.73,40.27-15.48,94.6-15.48,94.6c-13.32,24.25-55.12,18.34-75.26-4.77l-9-128.31,25.66-8.2Z" transform="translate(0)"/><path class="cls-4" d="M163.36,308.65a1,1,0,0,1-.24,0,1.46,1.46,0,0,1-1.2-1.66c8.85-54,.17-77.72.08-78a1.45,1.45,0,0,1,2.71-1c.38,1,9.08,24.53.08,79.45A1.46,1.46,0,0,1,163.36,308.65Z" transform="translate(0)"/><path class="cls-4" d="M127.43,178.15l-16.09,5.15c2.74,9.42,11,37.08,41.68,37.38,32.9.32,32.8-23.35,25.44-37.85l-17.16-4.68Z" transform="translate(0)"/><path class="cls-6" d="M130.37,202.14c-5.54-6-13-20.76-13-20.76l10.05-3.23H161.3l11,3c4.34,7.17,4.63,15.23-.07,22.1C165.41,213.19,141,213.57,130.37,202.14Z" transform="translate(0)"/><path class="cls-7" d="M146,191.81s2.29-3.57-7.66-4.73-14.3-2.49-14.3-2.49S141.83,192.39,146,191.81Z" transform="translate(0)"/><path class="cls-7" d="M154.5,191.81s-1.86-3.57,6.24-4.73,11.65-2.49,11.65-2.49S157.86,192.39,154.5,191.81Z" transform="translate(0)"/><rect class="cls-6" x="127.43" y="158.33" width="34.37" height="23.24" transform="translate(289.22 339.9) rotate(180)"/><polygon class="cls-7" points="161.8 176.02 127.43 167.12 127.43 158.33 161.8 158.33 161.8 176.02"/><path class="cls-7" d="M82.33,113.4A12.17,12.17,0,1,0,94.5,101.24,12.17,12.17,0,0,0,82.33,113.4Z" transform="translate(0)"/><path class="cls-7" d="M186.36,113.4a12.17,12.17,0,1,0,12.17-12.16A12.17,12.17,0,0,0,186.36,113.4Z" transform="translate(0)"/><rect class="cls-6" x="94.5" y="33.24" width="105.33" height="130.28" rx="50.12" transform="translate(294.32 196.76) rotate(180)"/><path class="cls-7" d="M114.66,43.17a20.31,20.31,0,0,1,5.7-.12c1-2.79,3.62-5.2,7.51-6.94a50.08,50.08,0,0,1,16.22-2.86c12,.15,27,4.37,41.09,15.15.63.49,1.24,1,1.83,1.49a49.92,49.92,0,0,1,12.82,33.46V113.4c0,.4,0,.79,0,1.18-16.73-7.92-37.93-26.85-37.93-26.85,2.85,6.35,14.27,15,14.27,15-26-7.52-31.4-20.24-31.4-20.24,1.27,8.09,5.71,16,5.71,16-19-13.33-21.89-32-21.89-32,1.67,16.18-24.42,39-24.42,39V89.64l-9.48,27.64c-.1-1.28-.16-2.57-.16-3.88V83.35A50,50,0,0,1,114.66,43.17Z" transform="translate(0)"/><path class="cls-8" d="M99,48.67c5.9,11.75,19.53,16.82,30.45,11.34s15-19.45,9.11-31.19S119,12,108.08,17.49,93.08,36.93,99,48.67Z" transform="translate(0)"/><path class="cls-9" d="M134.74,58.51a1.89,1.89,0,0,0,1-1.7c0-31-20.72-42.22-21.6-42.68a1.9,1.9,0,0,0-1.77,3.37h0a35.14,35.14,0,0,1,9.79,8.82C128.68,34.54,132,44.8,132,56.81a1.9,1.9,0,0,0,1.9,1.9A1.84,1.84,0,0,0,134.74,58.51Z" transform="translate(0)"/><path class="cls-9" d="M125.55,63.13a2.09,2.09,0,0,0,.67-.56,1.92,1.92,0,0,0-.39-2.67c-9.62-7.19-15.88-16-18.62-26.06A35.18,35.18,0,0,1,106,20.72a1.9,1.9,0,0,0-3.76-.59c-.15,1-3.51,24.26,21.32,42.82A1.91,1.91,0,0,0,125.55,63.13Z" transform="translate(0)"/><path class="cls-10" d="M128.56,62.13s2.86,18.71,21.89,32c0,0-4.44-7.93-5.71-16,0,0,5.39,12.71,31.4,20.23,0,0-11.42-8.66-14.27-15,0,0,25.21,22.52,42.34,28.7,0,0,9.52-46.15-19-68s-60.9-16.77-64.82-5.36c0,0-8.45-1.3-13.68,3.93S86.51,72,90.5,91.31s4,22.09,4,22.09l9.64-28.12v15.86S130.23,78.3,128.56,62.13Z" transform="translate(0)"/><path class="cls-11" d="M144.74,58.71c31.9,4.73,41.71-3.2,43.88-11.74a48.84,48.84,0,0,1,11.24,16.17C192,76.3,144.74,58.71,144.74,58.71Z" transform="translate(0)"/><path class="cls-12" d="M96,59.61c3.74-8.13,8.22-14.57,10.64-17,5.23-5.23,13.68-3.93,13.68-3.93.92-2.68,3.42-5,7.07-6.72-.48.34-3.93,3-4.81,9-1,6.45,0,8.11,0,8.11S111,35.65,96,59.61Z" transform="translate(0)"/><path class="cls-12" d="M176.14,98.38a85.43,85.43,0,0,1-12.68-4.72c-8.73-10.84-7.06-21.3-7.06-21.3,8.95,13.42,41.56,36.85,42.1,37.23-16.5-8.24-36.63-26.21-36.63-26.21C164.72,89.72,176.14,98.38,176.14,98.38Z" transform="translate(0)"/><path class="cls-12" d="M128.56,62.13s10.21,20.5,19.22,26.37h0a57.29,57.29,0,0,0,2.66,5.66C131.42,80.84,128.56,62.13,128.56,62.13Z" transform="translate(0)"/><path class="cls-12" d="M104.14,101.14V95.91s23.71-25.22,24.42-33.78C130.23,78.3,104.14,101.14,104.14,101.14Z" transform="translate(0)"/><path class="cls-12" d="M128.56,62.13a8.43,8.43,0,0,1,.31,1.47C128.65,62.66,128.56,62.13,128.56,62.13Z" transform="translate(0)"/><path class="cls-9" d="M143.61,100.63a108.78,108.78,0,0,0-28-2S141,89.33,143.61,100.63Z" transform="translate(0)"/><path class="cls-13" d="M117.7,114.23c0,5.72,5.27,10.36,11.78,10.36s11.78-4.64,11.78-10.36-5.27-10.36-11.78-10.36S117.7,108.51,117.7,114.23Z" transform="translate(0)"/><path class="cls-9" d="M123.64,114.62c0,4.06,3,7.36,6.62,7.36s6.63-3.3,6.63-7.36-3-7.37-6.63-7.37S123.64,110.55,123.64,114.62Z" transform="translate(0)"/><path class="cls-13" d="M120.35,111.55c0,1.94,1.91,3.52,4.27,3.52s4.27-1.58,4.27-3.52S127,108,124.62,108,120.35,109.6,120.35,111.55Z" transform="translate(0)"/><path class="cls-14" d="M126.66,114.62c0,1.61,1.58,2.91,3.53,2.91s3.52-1.3,3.52-2.91-1.57-2.91-3.52-2.91S126.66,113,126.66,114.62Z" transform="translate(0)"/><path class="cls-12" d="M120.33,121.45a.83.83,0,0,0,.54-.19.65.65,0,0,0,0-1,8.56,8.56,0,0,1-2-8.53c.57-1.92,2.28-5.37,7.42-6.78a11.37,11.37,0,0,1,13,4.94.83.83,0,0,0,1,.3.65.65,0,0,0,.34-.93c-.05-.09-5-8.35-14.83-5.64-4.28,1.17-7.37,4-8.47,7.76a9.91,9.91,0,0,0,2.36,9.84A.83.83,0,0,0,120.33,121.45Z" transform="translate(0)"/><path class="cls-12" d="M118.24,112.06a.77.77,0,0,0,.76-.54.7.7,0,0,0-.59-.83s-2.61-.54-3.5-2.2a.81.81,0,0,0-1-.33.67.67,0,0,0-.37.93c1.22,2.28,4.43,2.93,4.56,3A.5.5,0,0,0,118.24,112.06Z" transform="translate(0)"/><path class="cls-12" d="M115.06,115.28a9.27,9.27,0,0,0,3-.53.66.66,0,0,0,.41-.91.82.82,0,0,0-1-.37,6.21,6.21,0,0,1-4.27,0,.85.85,0,0,0-1.06.27.67.67,0,0,0,.31,1A5.93,5.93,0,0,0,115.06,115.28Z" transform="translate(0)"/><path class="cls-12" d="M114,120.13a7.41,7.41,0,0,0,4.89-2.27.64.64,0,0,0-.1-1,.85.85,0,0,0-1.1.08,5.88,5.88,0,0,1-3.69,1.77h-.12a.7.7,0,1,0,0,1.39Z" transform="translate(0)"/><path class="cls-13" d="M186.48,114.23c0,5.72-5.27,10.36-11.78,10.36s-11.78-4.64-11.78-10.36,5.27-10.36,11.78-10.36S186.48,108.51,186.48,114.23Z" transform="translate(0)"/><path class="cls-9" d="M180.54,114.62c0,4.06-3,7.36-6.63,7.36s-6.62-3.3-6.62-7.36,3-7.37,6.62-7.37S180.54,110.55,180.54,114.62Z" transform="translate(0)"/><path class="cls-13" d="M183.83,111.55c0,1.94-1.91,3.52-4.27,3.52s-4.27-1.58-4.27-3.52,1.91-3.52,4.27-3.52S183.83,109.6,183.83,111.55Z" transform="translate(0)"/><path class="cls-14" d="M177.51,114.62c0,1.61-1.57,2.91-3.52,2.91s-3.53-1.3-3.53-2.91,1.58-2.91,3.53-2.91S177.51,113,177.51,114.62Z" transform="translate(0)"/><path class="cls-12" d="M183.85,121.45a.81.81,0,0,1-.54-.19.65.65,0,0,1,0-1,8.58,8.58,0,0,0,2-8.53c-.57-1.92-2.28-5.37-7.42-6.78a11.37,11.37,0,0,0-13,4.94.84.84,0,0,1-1,.3.65.65,0,0,1-.33-.93c.05-.09,5-8.35,14.83-5.64,4.28,1.17,7.36,4,8.46,7.76a9.88,9.88,0,0,1-2.35,9.84A.83.83,0,0,1,183.85,121.45Z" transform="translate(0)"/><path class="cls-12" d="M185.94,112.06a.76.76,0,0,1-.76-.54.7.7,0,0,1,.59-.83s2.6-.54,3.49-2.2a.83.83,0,0,1,1-.33.67.67,0,0,1,.37.93c-1.22,2.28-4.43,2.93-4.57,3A.44.44,0,0,1,185.94,112.06Z" transform="translate(0)"/><path class="cls-12" d="M189.11,115.28a9.18,9.18,0,0,1-3-.53.66.66,0,0,1-.41-.91.82.82,0,0,1,1-.37,6.21,6.21,0,0,0,4.27,0,.85.85,0,0,1,1.06.27.67.67,0,0,1-.31,1A6,6,0,0,1,189.11,115.28Z" transform="translate(0)"/><path class="cls-12" d="M190.23,120.13a7.41,7.41,0,0,1-4.89-2.27.64.64,0,0,1,.1-1,.85.85,0,0,1,1.1.08,5.81,5.81,0,0,0,3.69,1.77h.12a.7.7,0,1,1,0,1.39Z" transform="translate(0)"/><path class="cls-9" d="M162.29,100.63a108.78,108.78,0,0,1,28-2S164.91,89.33,162.29,100.63Z" transform="translate(0)"/><polygon class="cls-7" points="157.27 129.21 157.27 124.53 153.83 129.21 157.27 129.21"/><path class="cls-15" d="M151.52,146.94c9.44-.21,15.33-7.89,15.72-8a1.06,1.06,0,1,0-.74-2c-.14.05-11.13,4.51-25.42.39a1.06,1.06,0,0,0-1.31.72c-.17.56.39.83.71,1.31C144.74,145.59,146.66,146.94,151.52,146.94Z" transform="translate(0)"/></g><path class="cls-5" d="M278.4,138.23A18.64,18.64,0,0,1,268,148s13.69,5.49,24.08-4.07a94.9,94.9,0,0,0,27.59,3.95c32.71,0,59.24-15.35,59.24-34.29s-26.53-34.28-59.24-34.28-59.25,15.35-59.25,34.28C260.41,123.29,267.31,132,278.4,138.23ZM334,111.7a7.66,7.66,0,1,1,7.65,7.66A7.66,7.66,0,0,1,334,111.7Zm-26.3,0a7.66,7.66,0,1,1,7.66,7.66A7.66,7.66,0,0,1,307.67,111.7Zm-26.29,0a7.66,7.66,0,1,1,7.65,7.66A7.66,7.66,0,0,1,281.38,111.7Z" transform="translate(0)"/><polygon class="cls-4" points="103.89 186.15 79.05 193.03 65.24 309.67 81.27 323.35 140.44 279.97 136.07 259.79 92.33 288.36 107.51 237.19 103.89 186.15"/><path class="cls-16" d="M184.36,210.74c-.51-3.83-5.88-5.11-5.88-5.11h-25s-5.37,1.28-5.88,5.11,0,56.48,0,56.48-.48,3.58,2.83,4.6h31.14c3.31-1,2.83-4.6,2.83-4.6S184.87,214.58,184.36,210.74Z" transform="translate(0)"/><path class="cls-17" d="M184.36,213.3c-.51-3.84-5.88-5.11-5.88-5.11h-25s-5.37,1.27-5.88,5.11,0,56.47,0,56.47-.48,3.58,2.83,4.6h31.14c3.31-1,2.83-4.6,2.83-4.6S184.87,217.13,184.36,213.3Z" transform="translate(0)"/><path class="cls-16" d="M158.29,216.05a1.72,1.72,0,0,1-1.72,1.72h-3.2a1.72,1.72,0,0,1-1.72-1.72h0a1.72,1.72,0,0,1,1.72-1.73h3.2a1.72,1.72,0,0,1,1.72,1.73Z" transform="translate(0)"/><path class="cls-18" d="M142.12,216.72s8.41-1.34,7.74,15.14c0,0-3.36,7.74,23.89,0s12.78,5.72,9.08,6.73c0,0,1.68,14.81-.34,17.5s-4.25,12-21.74,10.68L140.44,280l-4.37-20.18,6.05-7.4s-2.35-7.74-1.34-15.14S142.12,216.72,142.12,216.72Z" transform="translate(0)"/></g></g></svg>