<?xml version="1.0" encoding="utf-8"?>
<svg viewBox="-10.073 0 440.333 566.162" width="440.333" height="566.162" xmlns="http://www.w3.org/2000/svg" xmlns:xlink="http://www.w3.org/1999/xlink">
  <defs>
    <clipPath id="clip-path" transform="translate(-82.4 -50.76)">
      <rect class="cls-1" width="526.33" height="617.73"/>
    </clipPath>
    <radialGradient id="radial-gradient" cx="-218.66" cy="407.76" r="12.35" gradientTransform="translate(411.13 -313.16) rotate(-8.88)" gradientUnits="userSpaceOnUse">
      <stop offset="0" stop-color="#004667"/>
      <stop offset="0.16" stop-color="#004160"/>
      <stop offset="0.39" stop-color="#00354e"/>
      <stop offset="0.67" stop-color="#00202f"/>
      <stop offset="0.97" stop-color="#000305"/>
      <stop offset="1"/>
    </radialGradient>
    <radialGradient id="radial-gradient-2" cx="924.18" cy="-363.84" r="15.9" gradientTransform="translate(-653.64 284.66) rotate(12.87)" xlink:href="#radial-gradient"/>
    <radialGradient id="radial-gradient-3" cx="342.27" cy="94.34" r="126.23" gradientUnits="userSpaceOnUse">
      <stop offset="0.02" stop-color="#fcc380"/>
      <stop offset="0.38" stop-color="#fac17f"/>
      <stop offset="0.55" stop-color="#f3ba7c"/>
      <stop offset="0.67" stop-color="#e8ad76"/>
      <stop offset="0.78" stop-color="#d79b6e"/>
      <stop offset="0.87" stop-color="#c18363"/>
      <stop offset="0.95" stop-color="#a76756"/>
      <stop offset="1" stop-color="#94524d"/>
    </radialGradient>
    <radialGradient id="radial-gradient-4" cx="380.06" cy="213.62" r="19.03" gradientUnits="userSpaceOnUse">
      <stop offset="0.01" stop-color="#ebf9ff"/>
      <stop offset="0.32" stop-color="#e9f7fd"/>
      <stop offset="0.49" stop-color="#e1f0f6"/>
      <stop offset="0.63" stop-color="#d3e4eb"/>
      <stop offset="0.75" stop-color="#bfd2db"/>
      <stop offset="0.86" stop-color="#a6bcc6"/>
      <stop offset="0.95" stop-color="#87a1ad"/>
      <stop offset="1" stop-color="#76929f"/>
    </radialGradient>
    <radialGradient id="radial-gradient-5" cx="307.18" cy="142.28" r="8.31" gradientTransform="matrix(0.97, 0.1, -0.17, 1.69, -19.59, -130.38)" gradientUnits="userSpaceOnUse">
      <stop offset="0" stop-color="#76b0c5"/>
      <stop offset="0.15" stop-color="#6fabc1"/>
      <stop offset="0.36" stop-color="#5d9eb7"/>
      <stop offset="0.61" stop-color="#3e88a6"/>
      <stop offset="0.88" stop-color="#146a8e"/>
      <stop offset="1" stop-color="#005c83"/>
    </radialGradient>
    <radialGradient id="radial-gradient-6" cx="407.93" cy="189.06" r="8.91" gradientTransform="matrix(0.93, 0.09, -0.13, 1.69, -35.49, -202.88)" xlink:href="#radial-gradient-5"/>
    <radialGradient id="radial-gradient-7" cx="306.76" cy="139.71" r="5.72" gradientTransform="translate(-45.9) scale(0.98 1)" xlink:href="#radial-gradient"/>
    <radialGradient id="radial-gradient-8" cx="408.16" cy="185.95" r="5.15" gradientTransform="matrix(0.93, -0.02, 0.02, 1, -65.36, -29.03)" xlink:href="#radial-gradient"/>
    <radialGradient id="radial-gradient-9" cx="421.52" cy="189.29" r="22.62" gradientTransform="matrix(0.93, -0.02, 0.02, 1, -65.36, -29.03)" xlink:href="#radial-gradient"/>
    <radialGradient id="radial-gradient-10" cx="308.14" cy="140.95" r="14.7" gradientTransform="translate(-45.9) scale(0.98 1)" xlink:href="#radial-gradient"/>
    <linearGradient id="linear-gradient" x1="267.58" y1="153.91" x2="278" y2="153.91" gradientUnits="userSpaceOnUse">
      <stop offset="0" stop-color="#b18686"/>
      <stop offset="0.15" stop-color="#aa7f84"/>
      <stop offset="0.38" stop-color="#966a80"/>
      <stop offset="0.66" stop-color="#764978"/>
      <stop offset="0.97" stop-color="#4a1b6e"/>
      <stop offset="0.99" stop-color="#46176d"/>
    </linearGradient>
    <linearGradient id="linear-gradient-2" x1="283.47" y1="156.49" x2="292.4" y2="156.49" xlink:href="#linear-gradient"/>
    <linearGradient id="linear-gradient-3" x1="248.02" y1="166.04" x2="256.69" y2="124.55" xlink:href="#linear-gradient"/>
    <linearGradient id="linear-gradient-4" x1="312.83" y1="179.57" x2="321.5" y2="138.08" xlink:href="#linear-gradient"/>
    <radialGradient id="radial-gradient-11" cx="243.34" cy="350.23" r="95.44" gradientUnits="userSpaceOnUse">
      <stop offset="0" stop-color="#ff5757"/>
      <stop offset="0.41" stop-color="#fd5556"/>
      <stop offset="0.59" stop-color="#f64f52"/>
      <stop offset="0.73" stop-color="#e9444c"/>
      <stop offset="0.85" stop-color="#d73544"/>
      <stop offset="0.95" stop-color="#c02139"/>
      <stop offset="0.98" stop-color="#b61934"/>
    </radialGradient>
    <radialGradient id="radial-gradient-12" cx="245.78" cy="524.11" r="113.54" xlink:href="#radial-gradient-11"/>
    <radialGradient id="radial-gradient-13" cx="408.44" cy="295.08" r="57.43" gradientUnits="userSpaceOnUse">
      <stop offset="0" stop-color="#fcc18f"/>
      <stop offset="0.44" stop-color="#fabf8e"/>
      <stop offset="0.6" stop-color="#f4b88a"/>
      <stop offset="0.71" stop-color="#e9ad83"/>
      <stop offset="0.8" stop-color="#d99c79"/>
      <stop offset="0.88" stop-color="#c4866c"/>
      <stop offset="0.95" stop-color="#ab6b5c"/>
      <stop offset="1" stop-color="#94524d"/>
    </radialGradient>
    <style>.cls-1{fill:none;}.cls-2{isolation:isolate;}.cls-3{clip-path:url(#clip-path);}.cls-4{fill:#688084;}.cls-5{fill:#b2b2b3;}.cls-6{fill:#3f5056;}.cls-7{fill:#ffdac6;}.cls-8{fill:#fff;}.cls-9{fill:#6b4615;}.cls-10{fill:#d3a089;}.cls-11{fill:url(#radial-gradient);}.cls-12{fill:url(#radial-gradient-2);}.cls-13{fill:url(#radial-gradient-3);}.cls-14{fill:#3d1616;mix-blend-mode:color-dodge;}.cls-15{fill:url(#radial-gradient-4);}.cls-16{fill:#e20036;}.cls-17{fill:url(#radial-gradient-5);}.cls-18{fill:url(#radial-gradient-6);}.cls-19{fill:url(#radial-gradient-7);}.cls-20{fill:url(#radial-gradient-8);}.cls-21{fill:url(#radial-gradient-9);}.cls-22{fill:url(#radial-gradient-10);}.cls-23{fill:#ffe6e6;}.cls-23,.cls-24,.cls-25,.cls-26,.cls-27,.cls-28,.cls-32,.cls-34{mix-blend-mode:multiply;}.cls-24{fill:url(#linear-gradient);}.cls-25{fill:url(#linear-gradient-2);}.cls-26{fill:url(#linear-gradient-3);}.cls-27{fill:url(#linear-gradient-4);}.cls-28{fill:#46176d;}.cls-29{fill:#e4b589;}.cls-30{fill:url(#radial-gradient-11);}.cls-31{fill:url(#radial-gradient-12);}.cls-32{fill:#e3b0a1;}.cls-33{fill:url(#radial-gradient-13);}.cls-35{fill:#e3c4bd;}.cls-36{fill:#f99300;}</style>
  </defs>
  <g class="cls-2">
    <g id="Layer_2" data-name="Layer 2">
      <g id="Layer_1-2" data-name="Layer 1">
        <g class="cls-3">
          <path class="cls-4" d="M156.78,81c-.69-3.13-4.58-4.69-7.57-5.33L124,88.46c0,2.31-2.28,4.5-3.57,6.33-2.34,3.32-4.4,6.8-6.79,10.09a98.09,98.09,0,0,0-12,21.45c-1.86,4.8-5,12.35-3.44,17.56.76,2.62,3,3.34,5.31,4.5,4.12,2,9,4.37,13.55,5.45a1.06,1.06,0,0,1,1.57-.92c5,2.67,11.22,1.84,16.62,3.24a6.74,6.74,0,0,0,1-.36A15,15,0,0,0,143,150c1.66-3,1.36-6.79,2-10,.87-4.35,1.94-8.71,2.49-13.23,1.38-11.19,4.82-22.27,7.46-33.34C155.89,89.56,157.64,84.92,156.78,81Z" transform="translate(-82.4 -50.76)"/>
          <polygon class="cls-5" points="34.68 21.85 37.55 20.53 66.39 24.17 69.02 27.82 62.86 54.05 55.02 99.22 51.85 101.69 48.2 102.8 22.91 97.04 18.98 93.34 17.06 89.62 17.45 86.1 31.07 29.86 33.43 23.23 34.68 21.85"/>
          <path class="cls-6" d="M156,78.38a4.64,4.64,0,0,0-1.87-1.72,16.33,16.33,0,0,0-3.35-1.21c-.65-.19-1.3-.36-2-.52a10.92,10.92,0,0,0-3.27-1c-1.67-.28-3.37-.37-5.06-.57-2.64-.3-5.26-.85-7.89-1.29-2.48-.42-5-.77-7.48-1a18.81,18.81,0,0,0-5.14.15,6.51,6.51,0,0,0-3.63,2.06c-1.28,1.48-1.71,3.39-2.24,5.18C113,82.23,111.93,86,111,89.69c-.48,1.87-.92,3.75-1.34,5.64s-.72,3.76-1,5.65a.31.31,0,0,0,.61.12c.62-2.52,1.31-5,2-7.53s1.35-5.07,2.06-7.59,1.43-5,2.17-7.5c.5-1.66.91-3.41,2.21-4.71a5.93,5.93,0,0,1,3.55-1.49,25.66,25.66,0,0,1,5.4.15c5.07.49,10,1.77,15.06,2.26a34.14,34.14,0,0,1,4.94.69,4.89,4.89,0,0,1,3.21,2.06,4.13,4.13,0,0,1,.45,2.1,22.7,22.7,0,0,1-.33,3.58c-.4,2.52-1.08,5-1.7,7.47s-1.05,5-1.54,7.51-1.05,5.15-1.61,7.71c-1.11,5.13-2.25,10.24-3.16,15.4-.45,2.57-.79,5.14-1.13,7.72s-.8,5.07-1.33,7.58c-.4,1.85-.77,3.7-1.08,5.57a44,44,0,0,1-1.14,5.31,9.52,9.52,0,0,1-2.22,4.16c-1.08,1-2.88,1.18-4.35,1.21a33.33,33.33,0,0,1-5.81-.55c-1.86-.29-3.73-.56-5.59-.87-2.75-.45-5.48-1.05-8.18-1.73a27.6,27.6,0,0,1-6.51-2.2,5.8,5.8,0,0,1-2.35-2.14,5.12,5.12,0,0,1-1.32-3.76,7.09,7.09,0,0,1,0-1.13h0a15.4,15.4,0,0,0-.27,1.91,13.92,13.92,0,0,1-.07-2.14,38.8,38.8,0,0,1,1.74-8.83c2.52-9.11,4.67-18.3,6.36-27.57a.24.24,0,0,0-.47-.1c-2.24,9.37-4.42,18.75-7,28a36.42,36.42,0,0,0-1.63,8.69c-.07,2.5.5,5.55,3,6.94a8.61,8.61,0,0,0,.74.58,19,19,0,0,0,5.68,2.29c2.71.73,5.43,1.38,8.19,1.9,2.07.39,4.16.65,6.23,1s3.88.61,5.83.73a12.2,12.2,0,0,0,5.24-.58,6.13,6.13,0,0,0,3.1-3.26c1.53-3.16,1.83-6.74,2.44-10.13.43-2.35,1-4.68,1.45-7.05.45-2.53.73-5.09,1.12-7.64.78-5.17,1.89-10.29,3-15.4.56-2.57,1.13-5.13,1.67-7.7s1-5.15,1.49-7.72c.95-4.93,2.75-9.71,2.89-14.75a5.08,5.08,0,0,0-1.08-3.38c.66.24,1.34.47,2,.74a4.57,4.57,0,0,1,2.78,2.25c.62,1.5.27,3.29.15,4.84a63.49,63.49,0,0,1-1.06,7.37c-1,4.9-2.35,9.72-3.6,14.56s-2.21,10-3.06,15-1.63,10.29-2.47,15.43c-.37,2.22-.79,4.43-1.14,6.66-.26,1.67-.53,3.34-1,5a12.48,12.48,0,0,1-2,4.54,7.18,7.18,0,0,1-4.7,2.55,22.28,22.28,0,0,1-6.72-.22c-2.15-.31-4.29-.69-6.43-1-2.55-.38-5.09-.8-7.6-1.37a61.22,61.22,0,0,1-7.07-2.12c-.26-.08-.44.23-.2.36a26.54,26.54,0,0,0,6.31,2.14c2.31.56,4.66,1,7,1.4,2.19.38,4.38.75,6.55,1.18a29.92,29.92,0,0,0,6.6.72,10.11,10.11,0,0,0,5.82-1.73,9.32,9.32,0,0,0,2.81-4,24.77,24.77,0,0,0,1.34-5.07c.32-1.8.6-3.61.92-5.42.88-5.12,1.66-10.26,2.48-15.38s1.64-10.23,2.84-15.28c1.15-4.85,2.56-9.64,3.67-14.49.57-2.44,1.05-4.88,1.39-7.35.18-1.22.3-2.45.4-3.68a25.16,25.16,0,0,0,.13-2.87A5.64,5.64,0,0,0,156,78.38Z" transform="translate(-82.4 -50.76)"/>
          <path class="cls-7" d="M299.34,293.38c-14-4.88-73.54-1.54-88.25-3.43-9.6-1.24-65.28-19.64-74.81-19.22.12-.21-1.8-.44-2.23-.69.2-12-5.1-31.69-11.85-52.15.15-.5-.53-2.32-1.72-5.12-5.35-15.8-11.36-31.7-16.17-44.56a83.14,83.14,0,0,1-1.91-13.07c5.2-.17,9.47-6.91,12.38-10.32a95.3,95.3,0,0,0,9.13-12.09,27.09,27.09,0,0,0,3-6l.13-.15c2.17-2.58,4.17-4.41,7.25-5.15a11.35,11.35,0,0,1,4.71-.32c1,.16,1.48,1.37,2.57,1.51,6,.78,4.59-4.36,4.31-5.38-.41-1.51-3.16-2.63-4.64-3.07-3.33-1-7-.16-10.35,0-1.28.06-9,.28-7.55-1.94,1.74-1,3.75-2.22,5.53-2.32,2.05-.11,4.66,1.21,6.68,1.82,4,1.2,12.53-.25,13.66-5.29,2.28-.68,3.47-1.31,2.92-4.6-2.78-1-6-1.54-8.92-2.72-3.5-1.39-6.87-3.77-10.5-4.77-3.34-.92-6.77,1.11-9.72,2.54-2.58,1.24-5.26,3.06-8,4.51a8.17,8.17,0,0,1,.75-1.62c.93-1.72,1.88-3.4,2.94-5.07.91-1.44,1.14-2.14,2.68-2.63,2-.65,4.59-.53,6.69-.86a28.56,28.56,0,0,0,10.54-3.55,7.2,7.2,0,0,0,3.22-4c1.84-2,0-2.57-3.26-2.36-.68,0-1.36.11-2,.19a83.11,83.11,0,0,0-13.76,1.73,13.38,13.38,0,0,0-5,1,16,16,0,0,0-4.47,4c-2.23,2.48-4.38,5.09-6.43,7.74-.52-2.29-1.72-5.09-3.75-5.59-2.69-.66-2.1,1.2-2.28,3a31.61,31.61,0,0,1-1.17,5.32c-1.19,4.34-3.77,7.74-5.67,11.71s-1.81,8.21-2.69,12.36c-.41,1.92-.85,3.84-1.37,5.75-1.27,3.28-2.52,6.55-3.72,9.79l.53-.62c-1.06,2.18-2.1,4.37-3.1,6.6l-.14.33c-.5.41-.82,1.84-1,4.1a26.35,26.35,0,0,0-.11,3.21c0,1.85,0,4,.11,6.42a51.64,51.64,0,0,0,.46,8.32C85.45,202.9,95,272.36,98.58,291a3.85,3.85,0,0,1-.8,1c5,9.38,22.94,17,31.32,20.79,18.82,8.41,59.49,22.95,79.51,27.19,11.76,2.49,38.59,8.17,50.18,4.62L327.74,313C292.44,314.66,332.61,304.94,299.34,293.38Z" transform="translate(-82.4 -50.76)"/>
          <path class="cls-8" d="M100.55,88.86A15.06,15.06,0,0,0,99.79,97a.29.29,0,0,0,.56-.08,22.59,22.59,0,0,1,1.26-7.76C101.81,88.47,100.79,88.2,100.55,88.86Z" transform="translate(-82.4 -50.76)"/>
          <path class="cls-7" d="M216.91,399.11c-1.26,14.08-1.79,28.21-1.83,42.39,0,14.53.3,29.07.48,43.61q.52,6.9,1.11,13.73c-.33,11.1-1.17,22.29-.68,33.05,1,21.81,2.41,43.08,7.14,64.59,2.52,11.44,5.07,22.92,7.73,34.39h72.49c0-.15,0-.3,0-.45l.3.45h89c-9.35-24.41-18.28-47.73-21.66-57.5-6.44-18.62-.69-25-22.95-54.77-9.07-12.13-23.12-25.82-35.28-34-3.59-2.41-12.25-14.15-13.6-16.82a27.4,27.4,0,0,1-2.79-15.21c1.28-12.67,27.64-49.78,32.38-57.32q6.09-9.71,12.25-19.35a15.65,15.65,0,0,1,9.86-4.29c2.67,19.18-1.66,38-1.13,57a78.59,78.59,0,0,0,.78,8.41,88.25,88.25,0,0,0,5.13,23.37c3.06,8.25,13.38,30.09,24.5,27.83,8.51-1.73,16.3-16.94,18.83-24.36,4.61-13.5,2.28-28.19-.13-41.77-3.06-17.18-5-34.92-7.15-52.44-1.21-9.87-2.56-19.8-3.69-29.63-.75-6.51-.23-12.34-5.46-17.21a26.73,26.73,0,0,0-7-4.22c-2.63-3.49-7.41-5.72-13.51-8-1.22-.47-2.45-1-3.67-1.5l-.11-.19,0,.13c-7.67-3.35-15.29-7.9-22.51-12.31-7.85-4.79-13.21-8.3-14.1-15.79,3.28-19.83,9.31-39.36,8.07-59.64a1.87,1.87,0,0,0-3.73,0c-.09,1.05-.2,2.09-.3,3.14a1.41,1.41,0,0,0-.53.93l-.87,5.19a1.53,1.53,0,0,0-1,1.19q-.85,4.43-1.65,8.88l-.91,0c.34-3.38.6-6.77.72-10.18a1.85,1.85,0,0,0-3.62-.49c-.86,3.48-1.58,7-2.21,10.52l-.56,0q.92-6.1,1.75-12.22v0c0-.16.05-.32.07-.49.27-2-3.25-2.51-3.6-.48-.75,4.35-1.61,8.72-2.5,13.1l-3.05-.09c.09-2.66.12-5.31,0-8-.06-2-3.19-2.58-3.6-.48-.55,2.75-1,5.52-1.35,8.3h-.33c.11-3.81.07-7.63-.19-11.45-.13-1.94-3.26-2.65-3.6-.49-.62,3.91-1,7.84-1.34,11.78l-1.37,0c0-1.32,0-2.64-.08-4-.08-2-3.24-2.59-3.59-.48-.23,1.43-.45,2.87-.66,4.31l-3.94-.12c3.65,9.29-.86,28.44-4.1,37.7-3.16,9-8.65,10.7-17.17,14-2.58,1-5,1.87-7.45,2.62-2.46,1.31-4.9,2.65-7.26,4.15-7,4.49-12.13,11-17.3,17.41-6.17,7.69-12.11,15.61-18.45,23.18-5.11,6.83-10.83,13.13-15.66,20.17-6.6,9.62-2.15,19.52,3.94,28.48C208.24,393.11,212.36,396.79,216.91,399.11Z" transform="translate(-82.4 -50.76)"/>
          <path class="cls-9" d="M407.42,90.82C423,83.41,440,77.57,457.73,79.22c37.55,3.49,50.56,43.21,47.74,75.42-1.62,18.57-11.89,51.37-15.36,69.61-3.65,19.16,17.51,20.46,22.55,13.94-5.53,8.91-13.71,10.16-24.38,12-35.87,6-50.74-22-50.75-31.88,0-13,16-67.68,17.92-80.56,1.39-9.48.14-32.57-9.12-37.45-9.06-4.77-16.43-4.08-26.13-3.36-3.4.24-11,3.83-14,2.44-5.58-2.55-.2-6.9,3.06-9.13Z" transform="translate(-82.4 -50.76)"/>
          <path class="cls-9" d="M506.6,128.18c-1.82-13.29-6.15-26.62-13.62-37.84a57.17,57.17,0,0,0-13.52-14.48,37.61,37.61,0,0,0-16.29-6.66c-21.28-3.47-49,4.61-56.6,26.85-.33,1,1.11,1.51,1.61.68A36.66,36.66,0,0,1,420.38,85a59.07,59.07,0,0,1,16.41-7.2c11.25-3,23.09-3.43,34.09.93l.58.24.88.4c.64.29,1.26.62,1.88,1a46.88,46.88,0,0,1,4.19,2.65,52.13,52.13,0,0,1,6.9,6,55.86,55.86,0,0,1,10.63,16.2c5.48,12.12,7.88,25.78,8.24,39,.33,12.17-2.66,24.6-6.32,36.11a211.56,211.56,0,0,1-7.66,20.66c-2.84,6.49-6.4,12.7-8.93,19.3-.15.39.41.55.62.26a80,80,0,0,0,6.66-11.62q3.1-6.18,5.84-12.53c1.83-4.22,3.63-8.37,5.15-12.72s2.85-8.82,4-13.31C507,156.67,508.52,142.16,506.6,128.18Z" transform="translate(-82.4 -50.76)"/>
          <path class="cls-7" d="M389.21,157.44C386,129.66,374.47,110.16,352.73,95c-23.28-16.27-53.25-21-79.15-9a58.24,58.24,0,0,0-25.77,24A45.82,45.82,0,0,0,242,129.39c-.32,3.6-.46,7.25-.62,10.86-.07,1.65-1.61,5.58-1.47,7.19-2.5,7.67-16.18,19.27-10.83,41,.81,3.29,1.68,6.46,2.74,9.66,2,6.09,3.9,12.24,6.19,18.23,4.9,12.81,11.59,26.32,24.71,30.46,15.72,5,55.41,3.4,61.16,1.78a110.85,110.85,0,0,0,20-7.91C357,234,369,224,376.8,210.78a56.06,56.06,0,0,0,5.67-13.55l.12-.25A72.59,72.59,0,0,0,389.21,157.44Z" transform="translate(-82.4 -50.76)"/>
          <path class="cls-7" d="M380.11,190.87c9.22-6.11,17.33-11.94,28.71-12.08,14.13-.18,13.15,19.85,9.11,29-4.81,10.87-16.86,15.59-28.71,16.42-8.87.63-17.11-4.88-16.86-15,.2-7.92,6.3-12.24,8.21-18.85Z" transform="translate(-82.4 -50.76)"/>
          <path class="cls-10" d="M381.48,210.19c.08-2.18,7.81-2.24,8.24-4.8.59-3.52-3-3.75-5.44-4.46-1.6-9.21,33.16-20.24,26.51-2.83-2.42,6.31-9.91,12.52-15.63,15C391.71,214.58,381.21,217.49,381.48,210.19Z" transform="translate(-82.4 -50.76)"/>
          <path class="cls-11" d="M242.93,130.94c6.67-10.46,21.66-5.63,30.81-3,4.55-9.9-13-10.2-17.72-10.67-7.81-.77-12.7,6.48-13.09,13.69Z" transform="translate(-82.4 -50.76)"/>
          <path class="cls-12" d="M308.51,133.44c7.19-1.65,18.51.82,25.37,3.47,10.21,4,8.68,4.64,12.82,11.81,1.53-3.36-3.16-16.38-12.29-20.09-5.06-2.06-11.05-1.83-16.41-1.93-6.16-.11-8,1.08-10.38,6.54Z" transform="translate(-82.4 -50.76)"/>
          <path class="cls-13" d="M270.23,165.21c-1.63,1.86-2.55,5.36-3.13,7.66,7.24,3.94,15.15,5.91,22.7,3.38-5.85,6.28-15.07,3.31-20.94,2.15-9-1.78-4.85-8.17,0-13.19Z" transform="translate(-82.4 -50.76)"/>
          <path class="cls-14" d="M279.35,147.88c-2.68,5.29-8.91,15.92-8.6,21.83,5.41-.83,11.23-15.89,9.05-20.46Z" transform="translate(-82.4 -50.76)"/>
          <path class="cls-9" d="M376.46,101c-3.81,5.84-12.26,13.37-20.51,16-13.78,4.33-26.13-3-38.66-7.74-24.59-9.38-51.74-8.07-70.42,13-7.16,8.08-9.79,16.88-11.4,27.54-2.37-7.34-1.09-19-.34-26.92a80,80,0,0,1,7.72-28.24C253.69,72.7,275.21,61.24,296.7,55c22.23-6.49,52.48-6.43,72,6.88,10.43,7.1,13.22,21.26,8.21,37.68-.57,1.87-.57.36-.1,1.91a15.08,15.08,0,0,0,.1-1.91Z" transform="translate(-82.4 -50.76)"/>
          <path class="cls-9" d="M370.53,104.86c1.88,4-2-3.27-2.27,1.93-1.37,24.16-7.82,37.52-6.49,44.91,1.72,9.53,6,18.4,8.75,27.57,2.21,7.41,4.12,11.93,7.8,16,8.49-10.5,26-16.54,33.35-13.74,6.09,2.3,6.56,13.86,5.38,20.4-1.47,8.17-9.4,15.86-16.42,19s-23.25,5.66-27.45-5.41c-2.41,3.35-6.05,6.95-7.59,11,18.22,16.25,45.84-3.34,55-20.68,11.09-21.09,17-36.41,17-60.37,0-28.06-11.32-53.34-23.22-62.36-18.78-14.24-35.26.45-42.86,21.74Z" transform="translate(-82.4 -50.76)"/>
          <path class="cls-15" d="M388.24,217.52a3.56,3.56,0,0,0-1.55-1.14c-2.19-1.2-5.25.59-6.74,2.24-2.33,2.57-2.05,6.46-1.14,9.56h0c.72,2.26,2.58,3.12,4.92,3.76a4.61,4.61,0,0,0,5.07-2.07A10.44,10.44,0,0,0,388.24,217.52Z" transform="translate(-82.4 -50.76)"/>
          <path class="cls-8" d="M291.26,205.86c-2.82-1-5.49-2.3-8.38-3.16-4.36-1.3-9.9-2.83-13.44-4.23l-9.53-1.54c-.26.7-.49,1.38-.68,2,0,3,.08,6,0,9.05,1.53,3.9,5.79,6.74,9.61,7.42,6.24,1.12,12.09.15,18.08-1.83,3.56-1.17,8.92-2.72,11.16-5.92C296.51,206.47,293.31,206.59,291.26,205.86Z" transform="translate(-82.4 -50.76)"/>
          <path class="cls-16" d="M290,203.39c-4.43-2.2-7-6.18-11.57-7.94-1.15-.44-3-.82-5.11-1.64-3.81,1.12-9.22,1.1-11.73-2-2.81.33-4.39,2.3-2.88,7.54l.36.59c.32-1.93,6.31-1.67,10.09-.35,4.64,1.61,9.24,3.53,13.77,5.52,5.68,2.51,15.46,5.64,20.56.76C298.41,205.57,294.67,205.71,290,203.39Z" transform="translate(-82.4 -50.76)"/>
          <path class="cls-16" d="M259.36,206.42c2.13,3.15,11.44,4.68,14.89,4.67,8.64,0,16.06,1,23.64-2.9-4,6.16-23.65,11.54-28.83,10.33-4.4-1-10.32,0-11.85-7.75-.62-3.16,1.21-6.83,2.05-8.38C259.26,202.39,258.63,205.35,259.36,206.42Z" transform="translate(-82.4 -50.76)"/>
          <path class="cls-8" d="M260.75,134a13,13,0,0,0-9.94-.72c-2.3.67-7.87,3.51-7.66,5.75l-3.1,3.89a16.49,16.49,0,0,0,2,3.83c8.19.22,16.41,1.15,23.8,4.77.86.06,1.73.13,2.59.23,1.52-.44,3-.93,4.32-1.46C273.23,143.92,265.83,136.63,260.75,134Z" transform="translate(-82.4 -50.76)"/>
          <path class="cls-8" d="M305.84,157.86c5,.89,10.19,1,15.07,2.6a62.68,62.68,0,0,1,7.87,3.5c4.32.37,9.18.21,10-2.48.9-3.12-6.06-10.18-7.91-12-2.74-2.7-4.76-4.63-8.4-5.2-6.35-1-10,3.14-15.49,5.23a1,1,0,0,1-.66.1L303,154A8.53,8.53,0,0,0,305.84,157.86Z" transform="translate(-82.4 -50.76)"/>
          <path class="cls-17" d="M255.33,148.11l.24-.2c2.6-2.17,8.14-8.88,5.26-12.48-2.1-2.62-10.62-1.59-13.54-1l-.34.7a29.5,29.5,0,0,0-.73,11.8A67.48,67.48,0,0,1,255.33,148.11Z" transform="translate(-82.4 -50.76)"/>
          <path class="cls-18" d="M319.71,160.1c2.87-2.55,4.65-8.36,5.2-11.93,1-6.31-4.41-4.92-8.81-4.83l-4.93,2.24c-2.21,3.21-2.39,9.19-.54,13A59.43,59.43,0,0,1,319.71,160.1Z" transform="translate(-82.4 -50.76)"/>
          <path class="cls-19" d="M251.43,133.41c-1.33,2.07-5,10.64-1.65,12.31,4.45,2.23,8.5-8.89,8.55-11.95Z" transform="translate(-82.4 -50.76)"/>
          <path class="cls-20" d="M315.78,143.7c-1.08,1.25-2.63,11.66-.11,12.19s4.88-11,4.74-13Z" transform="translate(-82.4 -50.76)"/>
          <path class="cls-21" d="M302.38,154.33c5.37-6.67,14.91-11.15,22.75-7.7,7.29,3.21,8.36,11,10.35,17.71,7.23.78,17.3-6.1,21.94-11.38-5.08.26-10.09,3.53-15.54,1.58-2.79-1-3.82-3.56-5.78-5.88a23.36,23.36,0,0,0-6.72-5.65c-11-6.24-22.33.82-27,11.32Z" transform="translate(-82.4 -50.76)"/>
          <path class="cls-22" d="M238,137a14.49,14.49,0,0,0,3.19,8.36c2.64-6.84,7-10.21,13.87-9.42,8.15.93,14.38,8.64,17.44,15.07.31-10-6.64-19.12-16.06-20-3.84-.35-11.5,2.23-14.3,4.92-1.56,1.49,2-.51,0,0-1.61.4-3.64-.82-5.18-1.06Z" transform="translate(-82.4 -50.76)"/>
          <path class="cls-14" d="M263.39,152.74c-1.69-.79-16.54-6.16-17.27-3.07-.55,2.31,16.11,5,18.42,4Z" transform="translate(-82.4 -50.76)"/>
          <path class="cls-14" d="M306.28,161.56c1.66.73,16.13,5.59,16.72,2.44.44-2.36-15.67-4.47-17.86-3.35Z" transform="translate(-82.4 -50.76)"/>
          <path class="cls-23" d="M236.37,155c-1.76,1.2-3.11,4.3-4.06,6.19a35.2,35.2,0,0,0-3.11,8.18c-1,4.65,2.27,14.63,8.14,14.73,7.27.12,8.55-13.79,7.87-18.83-.55-4.05-2.69-8.82-6.83-9.94a8.9,8.9,0,0,1-1.4-.29Z" transform="translate(-82.4 -50.76)"/>
          <path class="cls-23" d="M322.51,177.35c5.14-4.49,10.94-7.73,17.83-8.57,5.94-.73,12.92.87,15.57,6.78,3.07,6.87,1.17,12.59-3.05,18.36-2.66,3.62-7.67,9.81-12.3,11-9,2.2-15.83-5.07-18.1-13.13-.79-2.79-2.58-10.24-.76-13Z" transform="translate(-82.4 -50.76)"/>
          <path class="cls-24" d="M269.36,160.52a3.29,3.29,0,0,0,1.74,0,119.24,119.24,0,0,0,6.9-11.83,2.83,2.83,0,0,0-4.42-.67c-1.3,1.15-2,3.18-2.86,4.65-.53.91-1,1.84-1.6,2.71l-.13.18a4.18,4.18,0,0,1-.4.44,3.8,3.8,0,0,0-.92,1.59A2.43,2.43,0,0,0,269.36,160.52Z" transform="translate(-82.4 -50.76)"/>
          <path class="cls-25" d="M292,159.89a36.13,36.13,0,0,1-3.5-9.42c-.6-2.5-3.92-2.14-4.68,0s-.19,4.3.47,6.29a34.48,34.48,0,0,0,2.68,6.06C288.83,166.08,293.86,163.15,292,159.89Z" transform="translate(-82.4 -50.76)"/>
          <path class="cls-26" d="M275.21,132.08c-4.14-5.16-11.83-6.51-18-7.2l-.77-.09h-.05l-2.11-.3c-2-.28-4-.55-6-.77a38.25,38.25,0,0,0-10.14,0c-7.09,1.06-9.86,8.64-10,14.9,0,.89,0,1.8.07,2.72-1,8.34,1.06,16.95,7.89,22.57,6,4.91,14.38,7.26,21.91,5.07,7.83-2.27,13.92-8.87,17.5-16a26.46,26.46,0,0,0,3.14-11.42A14.62,14.62,0,0,0,275.21,132.08Z" transform="translate(-82.4 -50.76)"/>
          <path class="cls-27" d="M293.35,134.9c6.79-3.32,17-1.63,25,.09l1,.21h.07l2.77.54c2.61.5,5.23,1,7.84,1.57A67.75,67.75,0,0,1,343,141.23c8.74,3.76,10.08,12.09,8.43,18.12a24,24,0,0,1-.88,2.59c-1.2,8.34-6.29,15.8-16.63,18.53a41.25,41.25,0,0,1-29.44-3.64,38.32,38.32,0,0,1-17.7-22.06c-1.25-4.1-1.78-8.29-.68-12.15C287.11,139.18,289.73,136.67,293.35,134.9Z" transform="translate(-82.4 -50.76)"/>
          <path class="cls-28" d="M290.52,142a9.57,9.57,0,0,0-7.07-4.67c-2.38-.39-6.59-.15-8.1,2.08a.88.88,0,0,0,.76,1.32,25.92,25.92,0,0,0,3.1-.91,11.94,11.94,0,0,1,3.53-.1,9,9,0,0,1,6.11,3.26C289.57,144,291.17,143.12,290.52,142Z" transform="translate(-82.4 -50.76)"/>
          <path class="cls-28" d="M380.87,192.44l.11-.09,0,0a44.62,44.62,0,0,1,3.5-2.94l.56-.43c-.92-1.1-32.61-33.81-35.16-34.76-.3,1.86-.53,3.73-.74,5.61C350.69,161.23,380.14,191.74,380.87,192.44Z" transform="translate(-82.4 -50.76)"/>
          <path class="cls-29" d="M161.41,259a0,0,0,0,0,0,.05S161.43,259,161.41,259Z" transform="translate(-82.4 -50.76)"/>
          <path class="cls-30" d="M307.86,394.78c.17-.32-.18.31,0,0-.6-.41-.43.82,0,0a86.3,86.3,0,0,0,7.82-22.44c.94-4.62,2-10.86.55-15.93-10.76-2.66-21.5-5.58-32.65-4.94a78.05,78.05,0,0,0-42.64,16,1.58,1.58,0,0,1-1.41.29l-.57.53c-16-20.59-31-22.83-32.38-22.55-2,2.09-12.33,16.89-13.37,19.81-.07.27-.15.53-.21.79a1.5,1.5,0,0,1-.12.34,20,20,0,0,0-.18,7c2,16.87,17.72,26.14,23.68,32a173.53,173.53,0,0,1,23.67-.54c12.81.85,26.18,5.05,38.66,7.75,9.12,2,18,3.81,26.43,7.88,2.09,1,3.81,3.27,5.36,5,2.34-2.88,10.22-15.52,9.49-18.73C319.1,403.18,311,396.06,307.86,394.78Z" transform="translate(-82.4 -50.76)"/>
          <path class="cls-31" d="M362.06,533.24c-10.58-23.3-43.54-44.49-43.54-44.49s-7.33,4.14-10.26,5.84c-11.85,6.85-22.59,15.58-34.67,22.72A130.12,130.12,0,0,1,244.42,530c-8.62,2.54-19.6,6.06-28.72,5.57a205.52,205.52,0,0,0-.17,30.39c.12,1.53.26,3.06.42,4.58,2.61,12.13,5.26,20.17,5.31,20.61,11.83-3.45,14.88-4.51,27.72-4.51,5.58,0,7.28.91,13.54.91,4.12,0,12.45,8.21,18.22,5a7.64,7.64,0,0,1-.89-3.74c-1-4.5,1.19-9.66,3.81-13.53,4.74-7,11.3-12.75,18.1-17.7a114,114,0,0,1,26-14.25c10.34-4,18.61-9.68,29.68-6.27.62.08,6.52,10.16,7.12,10.28C363.91,545.27,363.07,535.47,362.06,533.24Z" transform="translate(-82.4 -50.76)"/>
          <path class="cls-32" d="M230.48,489a44.09,44.09,0,0,1-.73-8c0-.05-.13-.09-.15-.05a16.17,16.17,0,0,0-2.33,7.33,10,10,0,0,0,2.77,7.9c.15.16.5.16.55,0C231.4,494.05,230.84,491.44,230.48,489Z" transform="translate(-82.4 -50.76)"/>
          <path class="cls-7" d="M376.49,488.85c-8.65-4.45-12.82-19.58-13.38-28.58-.66-10.57,1.07-19.62,4.11-29.32,7.56-24.13,18.87-38,29.93-60.76a303.8,303.8,0,0,0,13.57-33.46c2.47-7.41,11.61-66.25,15.36-66.25s6.85,44.08,8.77,46.91c3.44,5.05.55,20.41,0,26.12-1.72,16.93-3.86,33.66-6.18,50.36-3,21.28-8.06,43.76-19.15,62.75-3.64,6.23-23.56,36.76-33,32.23Z" transform="translate(-82.4 -50.76)"/>
          <rect id="_Slice_" data-name="&lt;Slice&gt;" class="cls-1" x="231.47" y="187" width="0.91" height="0.91"/>
          <rect id="_Slice_2" data-name="&lt;Slice&gt;" class="cls-1" x="211.41" y="164.2" width="0.91" height="1.82"/>
          <path class="cls-33" d="M384.53,264.28l-.12.48c.14.25.3.5.45.75Z" transform="translate(-82.4 -50.76)"/>
          <path class="cls-7" d="M438.43,272.43c-1.24-8.89-3.19-17-4.5-25.78-.44-2.9-5.58-15.53-5-18.44.47-2.45-2.08-2.29-3.78-1.11-2.56,1.76-4.58,5.51.57,17.1-2.3-3.6-5-7-7.26-10.59-2.5-4.05-4.92-8.84-8.8-11.73-3.41-2.54-8.24-8.43-12.49-8-4.86.44-11-.22-15.78-.3-1.35,7.17,10.08,6.9,13.67,8.42,2.59,1.1,4.41,5.19,6.08,7.56,1.07,1.52,2.32,3.06,3.35,4.69-.62.57-1.22,1.16-1.82,1.76-1.68-1.33-6.17-9.07-9.88-11.61-2.44-1.67-17.89-10.7-20.21-12h0c.21,1.92-3.9,2.79-.92,6.79-5.13,5.3,7.16,17.83,10.93,21.76,1.85,1.93,4.11,4.79,6.5,7.14.12.43,0-.47,0,0-3.15.46-9-6.92-11.1-9.35-1.12-1.27-13.05-15.44-12.63-7.4.18,3.54,8.68,13.34,10.54,16.25,3.51,5.49,7.55,10.45,10.87,16.09,1.13,1.93,2.43,4.18,3.89,6.36.17.39.34.76.53,1.14.43.88.89,1.74,1.35,2.61,1,1.53,1.94,3,2.82,4.5,1.8,3,3.77,5.93,5.68,8.86a25.69,25.69,0,0,0,1.69,2.06c1.28,1.4,2.65,2.7,4,4,2.63,2.61,5,5.41,6.35,9a37.16,37.16,0,0,1,2,10.47c.18,2.79,13.89,4.69,16.81,57.56-.9-12.52,4.55-25,4.54-37.46v-6.31C436.37,308.38,441,290.63,438.43,272.43Z" transform="translate(-82.4 -50.76)"/>
          <g class="cls-34">
            <path class="cls-35" d="M398.52,244.1c-.48-1.95-2.51-3.82-3.76-5.35-1.66-2-3.52-3.95-5.33-5.86a35.24,35.24,0,0,0-6-4.7,26.11,26.11,0,0,1-5.72-5.68c-.05-.06-.15,0-.1.08,1.32,1.87,2.75,3.6,4.22,5.35.84,1,1.55,2.14,2.37,3.17a27.21,27.21,0,0,0,2.78,2.8c1.93,1.79,4.08,3.37,6.07,5.12,1,.86,1.93,1.77,2.83,2.72a14.24,14.24,0,0,0,2.38,2.52A.15.15,0,0,0,398.52,244.1Z" transform="translate(-82.4 -50.76)"/>
          </g>
          <path class="cls-7" d="M418.44,233.2c0,1.82-.86,2.82-2.2,3.88-1.8,1.42-2.06.71-3.35,3.1-2,3.77-4.4,4.6-8.39,5.53-.45,3.93-3.12,5-6.68,5.47a9.34,9.34,0,0,1-3.48,5.64c-2.65,2.36-2.53,2.77-.9,6.17a168.57,168.57,0,0,0,11.38,19.69c6.34,9.61,13.21,18.43,20.3,27.43a37.72,37.72,0,0,1,4.94,8.2c.93,2.12,4.73,11.6,6.45,13.07-.94-1.21.24-13.93.37-16.38.25-4.82,1-8.26,1.24-13.11.44-8.56-.23-14.09-.59-22.62-.49-11.33-4.08-27.8-13-35.74Z" transform="translate(-82.4 -50.76)"/>
          <g class="cls-34">
            <path class="cls-8" d="M369.25,229.72a10.71,10.71,0,0,0-1.78-2.08,2.48,2.48,0,0,0-1.44-.74,1.08,1.08,0,0,0-1.07.69,1.29,1.29,0,0,0-.08.47,1,1,0,0,0-.39.74,2.43,2.43,0,0,0,.65,1.59c.47.63.8,1,1.21,1.59a1.45,1.45,0,0,0,1.94.51,1.33,1.33,0,0,0,.66-1A1.31,1.31,0,0,0,369.25,229.72Z" transform="translate(-82.4 -50.76)"/>
          </g>
          <path class="cls-8" d="M430.23,231.15c-.29-2-.49-4.06-.77-6.09-.08-.56-1-.42-1,.13a35.19,35.19,0,0,0,.88,6.21C429.49,232,430.31,231.72,430.23,231.15Z" transform="translate(-82.4 -50.76)"/>
          <path class="cls-36" d="M205.07,503.6c-8,43.5-7.44,91.71-5.21,127.27H372.38l38.55-12.13S388.85,547,361.59,513.11,298.94,462.32,333,429.84c46.31-44.11,56.65-105.18,56.65-105.18L323,291.25l-33.21,16-14.29-19.88c-8.49-.6-19.29-12-60.47,16.8-71.71,50.11-25.46,71.11-10,101.77C213.62,422.87,217.92,433.44,205.07,503.6Z" transform="translate(-82.4 -50.76)"/>
        </g>
      </g>
    </g>
  </g>
</svg>